<mxfile host="app.diagrams.net" agent="Mozilla/5.0 (Windows NT 10.0; Win64; x64) AppleWebKit/537.36 (KHTML, like Gecko) Chrome/133.0.0.0 Safari/537.36 Edg/133.0.0.0" version="26.0.14">
  <diagram name="第 1 页" id="XTvLKkV5F6FF3HUJAnIu">
    <mxGraphModel dx="2254" dy="959" grid="1" gridSize="10" guides="1" tooltips="1" connect="1" arrows="1" fold="1" page="1" pageScale="1" pageWidth="827" pageHeight="1169" math="0" shadow="0">
      <root>
        <mxCell id="0" />
        <mxCell id="1" parent="0" />
        <mxCell id="4fi4xNbcaeaAlP1syWkj-2" value="" style="rounded=1;arcSize=5;whiteSpace=wrap;html=1;fillColor=light-dark(#deebf7, #1d293b);strokeColor=light-dark(#2a77bc, #5c79a3);" vertex="1" parent="1">
          <mxGeometry x="-100" y="280" width="540" height="290" as="geometry" />
        </mxCell>
        <mxCell id="4fi4xNbcaeaAlP1syWkj-3" value="" style="group" vertex="1" connectable="0" parent="1">
          <mxGeometry x="-300" y="350" width="140" height="100" as="geometry" />
        </mxCell>
        <mxCell id="4fi4xNbcaeaAlP1syWkj-4" value="" style="group" vertex="1" connectable="0" parent="4fi4xNbcaeaAlP1syWkj-3">
          <mxGeometry x="-50" width="190" height="88" as="geometry" />
        </mxCell>
        <mxCell id="4fi4xNbcaeaAlP1syWkj-5" value="" style="shape=actor;whiteSpace=wrap;html=1;" vertex="1" parent="4fi4xNbcaeaAlP1syWkj-4">
          <mxGeometry x="50" width="40" height="60" as="geometry" />
        </mxCell>
        <mxCell id="4fi4xNbcaeaAlP1syWkj-6" value="&lt;font face=&quot;Times New Roman&quot; style=&quot;font-size: 14px;&quot;&gt;I&#39;m sleepy&lt;/font&gt;" style="whiteSpace=wrap;html=1;shape=mxgraph.basic.roundRectCallout;dx=30;dy=15;size=5;boundedLbl=1;" vertex="1" parent="4fi4xNbcaeaAlP1syWkj-4">
          <mxGeometry x="100" width="80" height="60" as="geometry" />
        </mxCell>
        <mxCell id="4fi4xNbcaeaAlP1syWkj-7" value="&lt;font face=&quot;Times New Roman&quot; style=&quot;font-size: 14px;&quot;&gt;Human Dialogue&lt;/font&gt;" style="text;html=1;align=center;verticalAlign=middle;resizable=0;points=[];autosize=1;strokeColor=none;fillColor=none;" vertex="1" parent="4fi4xNbcaeaAlP1syWkj-3">
          <mxGeometry y="70" width="120" height="30" as="geometry" />
        </mxCell>
        <mxCell id="4fi4xNbcaeaAlP1syWkj-8" style="edgeStyle=orthogonalEdgeStyle;rounded=1;orthogonalLoop=1;jettySize=auto;html=1;fillColor=#1ba1e2;strokeColor=light-dark(#164673, #51afe7);curved=0;textShadow=1;" edge="1" parent="1">
          <mxGeometry relative="1" as="geometry">
            <mxPoint x="51" y="409.5" as="sourcePoint" />
            <mxPoint x="101" y="409.5" as="targetPoint" />
          </mxGeometry>
        </mxCell>
        <mxCell id="4fi4xNbcaeaAlP1syWkj-9" style="edgeStyle=orthogonalEdgeStyle;rounded=1;orthogonalLoop=1;jettySize=auto;html=1;fillColor=#1ba1e2;strokeColor=light-dark(#164673, #51afe7);curved=0;entryX=0.004;entryY=-0.071;entryDx=0;entryDy=0;entryPerimeter=0;" edge="1" parent="1" target="4fi4xNbcaeaAlP1syWkj-24">
          <mxGeometry relative="1" as="geometry">
            <mxPoint x="210" y="410" as="sourcePoint" />
            <mxPoint x="260" y="410" as="targetPoint" />
          </mxGeometry>
        </mxCell>
        <mxCell id="4fi4xNbcaeaAlP1syWkj-14" value="" style="group;align=left;" vertex="1" connectable="0" parent="1">
          <mxGeometry x="-61" y="332.5" width="115.5" height="145" as="geometry" />
        </mxCell>
        <mxCell id="4fi4xNbcaeaAlP1syWkj-15" value="&lt;b&gt;&lt;font face=&quot;Times New Roman&quot;&gt;Env. Prompt&lt;/font&gt;&lt;/b&gt;" style="text;html=1;align=center;verticalAlign=middle;resizable=0;points=[];autosize=1;strokeColor=none;fillColor=none;" vertex="1" parent="4fi4xNbcaeaAlP1syWkj-14">
          <mxGeometry x="5" y="110" width="90" height="30" as="geometry" />
        </mxCell>
        <mxCell id="4fi4xNbcaeaAlP1syWkj-16" value="&lt;div style=&quot;color: rgb(51, 51, 51);&quot;&gt;&lt;span style=&quot;background-color: transparent; color: light-dark(rgb(51, 51, 51), rgb(193, 193, 193));&quot;&gt;&lt;font face=&quot;Times New Roman&quot;&gt;&amp;nbsp; User states:&lt;/font&gt;&lt;/span&gt;&lt;/div&gt;&lt;div style=&quot;color: rgb(51, 51, 51);&quot;&gt;&lt;span style=&quot;background-color: transparent; color: light-dark(rgb(51, 51, 51), rgb(193, 193, 193));&quot;&gt;&lt;font face=&quot;Times New Roman&quot;&gt;&amp;nbsp; Env.info.:&lt;/font&gt;&lt;/span&gt;&lt;/div&gt;&lt;div style=&quot;color: rgb(51, 51, 51);&quot;&gt;&lt;font face=&quot;Times New Roman&quot;&gt;&amp;nbsp; Intention history:&lt;/font&gt;&lt;/div&gt;&lt;div style=&quot;color: rgb(51, 51, 51);&quot;&gt;&lt;font face=&quot;Times New Roman&quot;&gt;&amp;nbsp; ...&lt;/font&gt;&lt;/div&gt;" style="strokeWidth=1;html=1;shape=mxgraph.flowchart.multi-document;whiteSpace=wrap;align=left;fillColor=light-dark(#e7e6e6, #ededed);" vertex="1" parent="4fi4xNbcaeaAlP1syWkj-14">
          <mxGeometry x="-10" y="20" width="115.5" height="90" as="geometry" />
        </mxCell>
        <mxCell id="4fi4xNbcaeaAlP1syWkj-17" value="" style="group" vertex="1" connectable="0" parent="1">
          <mxGeometry x="106" y="342.5" width="149" height="165" as="geometry" />
        </mxCell>
        <mxCell id="4fi4xNbcaeaAlP1syWkj-18" value="" style="group;fontStyle=0;strokeWidth=1;" vertex="1" connectable="0" parent="4fi4xNbcaeaAlP1syWkj-17">
          <mxGeometry width="149" height="165" as="geometry" />
        </mxCell>
        <mxCell id="4fi4xNbcaeaAlP1syWkj-19" value="&lt;b&gt;&lt;font face=&quot;Times New Roman&quot;&gt;LLM&lt;/font&gt;&lt;/b&gt;&lt;div&gt;&lt;b&gt;&lt;font face=&quot;Times New Roman&quot;&gt;GPT-4o&lt;/font&gt;&lt;/b&gt;&lt;/div&gt;" style="text;html=1;align=center;verticalAlign=middle;resizable=0;points=[];autosize=1;strokeColor=none;fillColor=none;" vertex="1" parent="4fi4xNbcaeaAlP1syWkj-18">
          <mxGeometry x="19" y="95" width="60" height="40" as="geometry" />
        </mxCell>
        <mxCell id="4fi4xNbcaeaAlP1syWkj-20" value="" style="curved=1;endArrow=classic;html=1;rounded=0;strokeWidth=2;strokeColor=light-dark(#164673, #ededed);" edge="1" parent="4fi4xNbcaeaAlP1syWkj-18">
          <mxGeometry width="50" height="50" relative="1" as="geometry">
            <mxPoint x="64.5" y="20" as="sourcePoint" />
            <mxPoint x="34.5" y="20" as="targetPoint" />
            <Array as="points">
              <mxPoint x="64.5" />
              <mxPoint x="34.5" />
            </Array>
          </mxGeometry>
        </mxCell>
        <mxCell id="4fi4xNbcaeaAlP1syWkj-21" value="" style="group" vertex="1" connectable="0" parent="1">
          <mxGeometry x="270" y="230" width="135" height="130" as="geometry" />
        </mxCell>
        <mxCell id="4fi4xNbcaeaAlP1syWkj-22" value="" style="group" vertex="1" connectable="0" parent="4fi4xNbcaeaAlP1syWkj-21">
          <mxGeometry y="60" width="130" height="60" as="geometry" />
        </mxCell>
        <mxCell id="4fi4xNbcaeaAlP1syWkj-23" value="&lt;font style=&quot;font-size: 10px;&quot; face=&quot;Times New Roman&quot;&gt;Human wants to have a coffee&lt;/font&gt;" style="whiteSpace=wrap;html=1;shape=mxgraph.basic.cloud_callout;strokeColor=light-dark(#4468ab, #319eff);fillColor=light-dark(#bdd7ee, #1e4a76);" vertex="1" parent="4fi4xNbcaeaAlP1syWkj-22">
          <mxGeometry x="5" width="120" height="39.99999999999999" as="geometry" />
        </mxCell>
        <mxCell id="4fi4xNbcaeaAlP1syWkj-24" value="&lt;b&gt;&lt;font face=&quot;Times New Roman&quot;&gt;Intention Reasoning&lt;/font&gt;&lt;/b&gt;" style="text;html=1;align=center;verticalAlign=middle;resizable=0;points=[];autosize=1;strokeColor=none;fillColor=none;" vertex="1" parent="4fi4xNbcaeaAlP1syWkj-21">
          <mxGeometry y="100" width="130" height="30" as="geometry" />
        </mxCell>
        <mxCell id="4fi4xNbcaeaAlP1syWkj-25" value="&lt;font style=&quot;font-size: 15px;&quot; face=&quot;Times New Roman&quot;&gt;High-Level Mind&lt;/font&gt;" style="text;html=1;align=center;verticalAlign=middle;resizable=0;points=[];autosize=1;strokeColor=none;fillColor=none;fontColor=light-dark(#1c4c77, #a1cdf9);fontStyle=1" vertex="1" parent="1">
          <mxGeometry x="-85" y="295" width="130" height="30" as="geometry" />
        </mxCell>
        <mxCell id="4fi4xNbcaeaAlP1syWkj-43" value="" style="shape=image;html=1;verticalAlign=top;verticalLabelPosition=bottom;labelBackgroundColor=#ffffff;imageAspect=0;aspect=fixed;image=https://cdn0.iconfinder.com/data/icons/phosphor-light-vol-1/256/brain-light-128.png;imageBackground=none;imageBorder=none;" vertex="1" parent="1">
          <mxGeometry x="114" y="360" width="83" height="83" as="geometry" />
        </mxCell>
        <mxCell id="4fi4xNbcaeaAlP1syWkj-54" value="" style="shape=singleArrow;whiteSpace=wrap;html=1;fillColor=light-dark(#eeeeee, #1a1a1a);strokeColor=#666666;gradientColor=none;" vertex="1" parent="1">
          <mxGeometry x="-160" y="381" width="82" height="41" as="geometry" />
        </mxCell>
        <mxCell id="4fi4xNbcaeaAlP1syWkj-56" value="" style="group" vertex="1" connectable="0" parent="1">
          <mxGeometry x="287.49714285714276" y="378" width="100" height="82.00037037037032" as="geometry" />
        </mxCell>
        <mxCell id="4fi4xNbcaeaAlP1syWkj-57" value="" style="html=1;verticalLabelPosition=bottom;align=center;labelBackgroundColor=#ffffff;verticalAlign=middle;strokeWidth=4;strokeColor=light-dark(#4468ab, #319eff);shadow=0;dashed=0;shape=mxgraph.ios7.icons.pie_chart;aspect=fixed;fillColor=light-dark(#bdd7ee, #1e4a76);fontStyle=0;fontFamily=Helvetica;fontSize=12;fontColor=default;" vertex="1" parent="4fi4xNbcaeaAlP1syWkj-56">
          <mxGeometry x="23.132857142857233" width="53.74" height="52" as="geometry" />
        </mxCell>
        <mxCell id="4fi4xNbcaeaAlP1syWkj-58" value="&lt;b&gt;&lt;font face=&quot;Times New Roman&quot;&gt;Probability List&lt;/font&gt;&lt;/b&gt;" style="text;html=1;align=center;verticalAlign=middle;resizable=0;points=[];autosize=1;strokeColor=none;fillColor=none;fontStyle=0" vertex="1" parent="4fi4xNbcaeaAlP1syWkj-56">
          <mxGeometry y="52.00037037037032" width="100" height="30" as="geometry" />
        </mxCell>
        <mxCell id="4fi4xNbcaeaAlP1syWkj-59" value="" style="group" vertex="1" connectable="0" parent="1">
          <mxGeometry x="270" y="450" width="155" height="106.5" as="geometry" />
        </mxCell>
        <mxCell id="4fi4xNbcaeaAlP1syWkj-41" value="" style="group" vertex="1" connectable="0" parent="4fi4xNbcaeaAlP1syWkj-59">
          <mxGeometry width="120" height="106.5" as="geometry" />
        </mxCell>
        <mxCell id="4fi4xNbcaeaAlP1syWkj-42" value="&lt;b&gt;&lt;font face=&quot;Times New Roman&quot;&gt;Completion Assessment&lt;/font&gt;&lt;/b&gt;" style="text;html=1;align=center;verticalAlign=middle;resizable=0;points=[];autosize=1;strokeColor=none;fillColor=none;" vertex="1" parent="4fi4xNbcaeaAlP1syWkj-41">
          <mxGeometry x="-4.444444444444445" y="81.92307692307692" width="140" height="30" as="geometry" />
        </mxCell>
        <mxCell id="4fi4xNbcaeaAlP1syWkj-45" value="&lt;div style=&quot;text-align: center; line-height: 100%;&quot;&gt;&lt;span style=&quot;background-color: transparent; color: light-dark(rgb(0, 0, 0), rgb(255, 255, 255)); font-family: &amp;quot;Times New Roman&amp;quot;;&quot;&gt;&amp;nbsp; &amp;nbsp; &amp;nbsp;&lt;/span&gt;&lt;/div&gt;&lt;div style=&quot;text-align: center; line-height: 100%;&quot;&gt;&lt;span style=&quot;background-color: transparent; color: light-dark(rgb(0, 0, 0), rgb(255, 255, 255)); font-family: &amp;quot;Times New Roman&amp;quot;;&quot;&gt;&amp;nbsp; &amp;nbsp;&lt;/span&gt;&lt;span style=&quot;font-family: &amp;quot;Times New Roman&amp;quot;; background-color: transparent; color: light-dark(rgb(0, 0, 0), rgb(255, 255, 255));&quot;&gt;Human wants to have coffee&lt;/span&gt;&lt;/div&gt;&lt;ul style=&quot;line-height: 100%;&quot;&gt;&lt;li&gt;&lt;font face=&quot;Times New Roman&quot;&gt;Yes&lt;/font&gt;&lt;/li&gt;&lt;li&gt;&lt;font face=&quot;Times New Roman&quot;&gt;No&lt;/font&gt;&lt;/li&gt;&lt;/ul&gt;" style="shape=note;whiteSpace=wrap;html=1;backgroundOutline=1;darkOpacity=0.05;align=left;size=9;fillColor=light-dark(#bdd7ee, #ededed);" vertex="1" parent="4fi4xNbcaeaAlP1syWkj-59">
          <mxGeometry y="13" width="155" height="70" as="geometry" />
        </mxCell>
        <mxCell id="4fi4xNbcaeaAlP1syWkj-60" value="" style="endArrow=classic;html=1;rounded=1;strokeColor=light-dark(#164673, #51afe7);align=center;verticalAlign=middle;fontFamily=Helvetica;fontSize=11;fontColor=default;labelBackgroundColor=default;curved=0;fillColor=#1ba1e2;" edge="1" parent="1">
          <mxGeometry width="50" height="50" relative="1" as="geometry">
            <mxPoint x="210" y="410" as="sourcePoint" />
            <mxPoint x="290" y="410" as="targetPoint" />
          </mxGeometry>
        </mxCell>
        <mxCell id="4fi4xNbcaeaAlP1syWkj-61" style="edgeStyle=orthogonalEdgeStyle;rounded=1;orthogonalLoop=1;jettySize=auto;html=1;fillColor=#1ba1e2;strokeColor=light-dark(#164673, #51afe7);curved=0;entryX=0;entryY=0.5;entryDx=0;entryDy=0;entryPerimeter=0;" edge="1" parent="1" target="4fi4xNbcaeaAlP1syWkj-45">
          <mxGeometry relative="1" as="geometry">
            <mxPoint x="210" y="410" as="sourcePoint" />
            <mxPoint x="281" y="338" as="targetPoint" />
          </mxGeometry>
        </mxCell>
        <mxCell id="4fi4xNbcaeaAlP1syWkj-62" value="" style="shape=flexArrow;endArrow=classic;html=1;rounded=0;fillColor=#66B2FF;strokeColor=light-dark(#7193c2, #ededed);" edge="1" parent="1">
          <mxGeometry width="50" height="50" relative="1" as="geometry">
            <mxPoint x="387.5" y="404.40999999999997" as="sourcePoint" />
            <mxPoint x="513.84" y="404.40999999999997" as="targetPoint" />
          </mxGeometry>
        </mxCell>
        <mxCell id="4fi4xNbcaeaAlP1syWkj-63" value="&lt;b&gt;Target&lt;/b&gt;" style="rounded=1;arcSize=5;whiteSpace=wrap;html=1;fillColor=light-dark(#ffffff, #1f2f1e);strokeColor=light-dark(#4468ab, #446e2c);" vertex="1" parent="1">
          <mxGeometry x="520" y="385.00000000000006" width="132" height="37" as="geometry" />
        </mxCell>
      </root>
    </mxGraphModel>
  </diagram>
</mxfile>
